<?xml version="1.0" encoding="UTF-8" standalone="no"?>
<!-- Created with Inkscape (http://www.inkscape.org/) -->

<svg
   width="126.72027mm"
   height="101.26809mm"
   viewBox="0 0 126.72026 101.26809"
   version="1.1"
   id="svg1"
   sodipodi:docname="logo.svg"
   inkscape:version="1.3.2 (091e20ef0f, 2023-11-25)"
   xmlns:inkscape="http://www.inkscape.org/namespaces/inkscape"
   xmlns:sodipodi="http://sodipodi.sourceforge.net/DTD/sodipodi-0.dtd"
   xmlns="http://www.w3.org/2000/svg"
   xmlns:svg="http://www.w3.org/2000/svg">
  <sodipodi:namedview
     id="namedview1"
     pagecolor="#505050"
     bordercolor="#ffffff"
     borderopacity="1"
     inkscape:showpageshadow="0"
     inkscape:pageopacity="0"
     inkscape:pagecheckerboard="1"
     inkscape:deskcolor="#d1d1d1"
     inkscape:document-units="mm"
     inkscape:zoom="1"
     inkscape:cx="402.5"
     inkscape:cy="201.5"
     inkscape:window-width="1920"
     inkscape:window-height="1011"
     inkscape:window-x="0"
     inkscape:window-y="0"
     inkscape:window-maximized="1"
     inkscape:current-layer="layer1"
     showgrid="false">
    <sodipodi:guide
       position="1278.082,-93.882675"
       inkscape:color="rgb(167,0,255)"
       inkscape:label="Measure"
       orientation="1,0"
       id="guide6"
       inkscape:locked="false" />
    <sodipodi:guide
       position="1278.082,-93.882675"
       inkscape:color="rgb(167,0,255)"
       inkscape:label="Base"
       orientation="-0.80117,-0.598437"
       id="guide7"
       inkscape:locked="false" />
    <sodipodi:guide
       position="1278.082,-93.882675"
       inkscape:color="rgb(167,0,255)"
       inkscape:label=""
       orientation="-0,1"
       id="guide8"
       inkscape:locked="false" />
    <sodipodi:guide
       position="1278.082,-93.882675"
       inkscape:color="rgb(167,0,255)"
       inkscape:label="Start"
       orientation="1,0"
       id="guide9"
       inkscape:locked="false" />
    <sodipodi:guide
       position="1278.082,-126.25797"
       inkscape:color="rgb(167,0,255)"
       inkscape:label="End"
       orientation="-0,1"
       id="guide10"
       inkscape:locked="false" />
    <sodipodi:guide
       position="1278.082,-126.25797"
       inkscape:color="rgb(167,0,255)"
       inkscape:label=""
       orientation="1,0"
       id="guide11"
       inkscape:locked="false" />
    <sodipodi:guide
       position="1278.082,-103.02847"
       inkscape:color="rgb(167,0,255)"
       inkscape:label="Crossing 1"
       orientation="-0.80117,0.598437"
       id="guide12"
       inkscape:locked="false" />
    <sodipodi:guide
       position="1278.082,-105.29737"
       inkscape:color="rgb(167,0,255)"
       inkscape:label="Crossing 2"
       orientation="-0.80117,0.598437"
       id="guide13"
       inkscape:locked="false" />
    <sodipodi:guide
       position="1278.082,-111.61437"
       inkscape:color="rgb(167,0,255)"
       inkscape:label="Crossing 3"
       orientation="-0.80117,0.598437"
       id="guide14"
       inkscape:locked="false" />
    <sodipodi:guide
       position="1278.082,-116.91987"
       inkscape:color="rgb(167,0,255)"
       inkscape:label="Crossing 4"
       orientation="-0.80117,0.598437"
       id="guide15"
       inkscape:locked="false" />
    <sodipodi:guide
       position="1278.082,-121.20937"
       inkscape:color="rgb(167,0,255)"
       inkscape:label="Crossing 5"
       orientation="-0.80117,0.598437"
       id="guide16"
       inkscape:locked="false" />
    <sodipodi:guide
       position="1077.2707,1555.7467"
       inkscape:color="rgb(167,0,255)"
       inkscape:label="Measure"
       orientation="1,0"
       id="guide17"
       inkscape:locked="false" />
    <sodipodi:guide
       position="1273.6634,-91.676545"
       inkscape:color="rgb(167,0,255)"
       inkscape:label="Base"
       orientation="-0.801351,-0.598195"
       id="guide18"
       inkscape:locked="false" />
    <sodipodi:guide
       position="1278.082,-93.882675"
       inkscape:color="rgb(167,0,255)"
       inkscape:label=""
       orientation="-0,1"
       id="guide19"
       inkscape:locked="false" />
    <sodipodi:guide
       position="1278.082,-126.25797"
       inkscape:color="rgb(167,0,255)"
       inkscape:label="End"
       orientation="-0,1"
       id="guide21"
       inkscape:locked="false" />
    <sodipodi:guide
       position="1302.8598,-101.53802"
       inkscape:color="rgb(167,0,255)"
       inkscape:label="Crossing 1"
       orientation="-0.801351,0.598195"
       id="guide23"
       inkscape:locked="false" />
    <sodipodi:guide
       position="1278.082,-105.29737"
       inkscape:color="rgb(167,0,255)"
       inkscape:label="Crossing 2"
       orientation="-0.801351,0.598195"
       id="guide24"
       inkscape:locked="false" />
    <sodipodi:guide
       position="1278.082,-111.61437"
       inkscape:color="rgb(167,0,255)"
       inkscape:label="Crossing 3"
       orientation="-0.801351,0.598195"
       id="guide25"
       inkscape:locked="false" />
    <sodipodi:guide
       position="1278.082,-116.91987"
       inkscape:color="rgb(167,0,255)"
       inkscape:label="Crossing 4"
       orientation="-0.801351,0.598195"
       id="guide26"
       inkscape:locked="false" />
    <sodipodi:guide
       position="1278.082,-121.20937"
       inkscape:color="rgb(167,0,255)"
       inkscape:label="Crossing 5"
       orientation="-0.801351,0.598195"
       id="guide27"
       inkscape:locked="false" />
  </sodipodi:namedview>
  <defs
     id="defs1" />
  <g
     inkscape:label="Layer 1"
     inkscape:groupmode="layer"
     id="layer1"
     transform="translate(1137.139,6.309752)">
    <rect
       style="fill:#000000;stroke:none;stroke-width:0;stroke-linecap:square;stroke-dasharray:none"
       id="rect2"
       width="126.72027"
       height="101.26809"
       x="-1137.139"
       y="-6.309752"
       ry="16.479614" />
    <path
       style="fill:#ffffff;stroke:none;stroke-width:0;stroke-linecap:square;stroke-dasharray:none"
       d="m -1127.3766,65.244085 c 0.028,-0.07115 1.277,-2.866808 2.7766,-6.21257 l 2.7266,-6.083202 7.0883,-0.06393 c 3.8987,-0.03516 11.5831,-0.07009 17.0767,-0.07762 5.4935,-0.0075 9.8317,-0.04007 9.6404,-0.07232 l -0.3478,-0.05864 0.5219,-1.157108 c 0.287,-0.636408 0.7417,-1.645261 1.0103,-2.241897 l 0.4884,-1.084789 h 5.5914 c 5.2846,0 5.5879,0.0093 5.5289,0.168746 -0.034,0.09281 -1.7367,3.905954 -3.783,8.473652 l -3.7206,8.304903 -15.3919,0.05919 c -8.4655,0.03256 -18.5114,0.08524 -22.3241,0.117071 -5.7765,0.04823 -6.9239,0.03631 -6.8821,-0.07149 z"
       id="path2" />
    <path
       style="fill:#ffffff;stroke:none;stroke-width:0;stroke-linecap:square;stroke-dasharray:none"
       d="m -1121.186,50.988331 c 0.034,-0.08809 1.3681,-3.075527 2.9651,-6.63875 l 2.9036,-6.478588 3.5302,-0.06347 c 1.9416,-0.03491 7.9164,-0.06353 13.2774,-0.06361 5.361,-7.8e-5 11.6357,-0.02881 13.9438,-0.06385 l 4.1965,-0.06371 0.7773,-1.74427 0.7772,-1.74427 4.8767,-0.02499 4.8766,-0.02499 -0.2248,0.507118 c -0.1237,0.278915 -1.3676,3.056249 -2.7644,6.171854 l -2.5395,5.664736 -16.6806,0.02437 -16.6806,0.02437 -1.0386,2.314215 -1.0386,2.314215 -5.6094,0.0249 c -5.1942,0.02305 -5.6048,0.01304 -5.5479,-0.135276 z"
       id="path4" />
    <path
       style="fill:#ffffff;stroke:none;stroke-width:0;stroke-linecap:square;stroke-dasharray:none"
       d="m -1114.9828,36.512129 c 0.018,-0.05031 1.7455,-3.912162 3.8397,-8.581884 l 3.8074,-8.490404 h 22.2516 c 12.2384,0 22.2506,0.03254 22.2495,0.07232 0,0.03978 -1.336,3.044641 -2.9664,6.677477 l -2.9642,6.605158 -17.4352,0.04821 -17.4351,0.04821 -0.8288,1.856195 -0.8288,1.856193 h -4.8609 c -3.0237,0 -4.8487,-0.03457 -4.8288,-0.09148 z"
       id="path5" />
    <path
       style="fill:#ffffff;stroke:none;stroke-width:0;stroke-linecap:square;stroke-dasharray:none"
       d="m -1077.6318,65.244085 c 0.028,-0.07115 1.277,-2.866808 2.7766,-6.21257 l 2.7266,-6.083202 7.0883,-0.06393 c 3.8987,-0.03516 11.5831,-0.07009 17.0767,-0.07762 5.4935,-0.0075 9.8317,-0.04007 9.6404,-0.07232 l -0.3478,-0.05864 0.5219,-1.157108 c 0.287,-0.636408 0.7417,-1.645261 1.0103,-2.241897 l 0.4884,-1.084789 h 5.5914 c 5.2846,0 5.5879,0.0093 5.5289,0.168746 -0.034,0.09281 -1.7367,3.905954 -3.783,8.473652 l -3.7206,8.304903 -15.3919,0.05919 c -8.4655,0.03256 -18.5114,0.08524 -22.3241,0.117071 -5.7765,0.04823 -6.9239,0.03631 -6.8821,-0.07149 z"
       id="path7" />
    <path
       id="path12"
       style="fill:#ffffff;stroke:none;stroke-width:0;stroke-linecap:square;stroke-dasharray:none"
       d="m -1023.4451,19.555337 c -4.6629,0.03169 -11.8579,0.0715 -19.1012,0.09973 l -15.3918,0.05943 -3.7207,8.30492 c -2.0463,4.567695 -3.7493,8.380384 -3.7833,8.473384 -0.059,0.1588 0.2443,0.168982 5.5289,0.168982 h 5.5914 l 0.4888,-1.085205 c 0.2686,-0.596699 0.7233,-1.605324 1.0103,-2.241723 l 0.522,-1.157036 -0.3483,-0.05891 c -0.1913,-0.032 4.1472,-0.06235 9.6407,-0.07235 5.4936,-0.008 13.1778,-0.04251 17.0765,-0.07751 l 7.0884,-0.06408 0.2393,-0.533818 c -0.093,-0.156157 -0.1154,-0.193919 -0.3628,-0.600997 -0.6092,-1.001296 -1.1728,-2.026934 -1.5926,-3.124357 -0.4037,-1.073945 -0.7067,-2.174961 -0.94,-3.298507 -0.2489,-1.029904 -0.4914,-2.063007 -0.831,-3.065962 -0.3793,-0.570224 -0.7491,-1.146734 -1.1146,-1.725993 z" />
    <path
       id="path17"
       style="fill:#ffffff;stroke:none;stroke-width:0;stroke-linecap:square;stroke-dasharray:none"
       d="m -1032.7267,20.000271 c -0.133,0.04766 -0.421,0.804886 -2.0221,5.142838 l -1.9358,5.245675 0.8485,0.833541 c 0.4668,0.458601 1.2551,1.234829 1.7528,1.724443 l 0.9049,0.890384 0.1762,-0.305924 c 0.096,-0.168382 -1.3782,3.911599 -3.2711,9.068697 -1.8947,5.156506 -4.5227,12.377468 -5.84,16.047083 l -2.3941,6.671944 4.7625,4.664315 c 1.6494,1.615379 2.1808,2.132559 3.0644,2.995166 0.2506,-0.138474 0.4998,-0.279658 0.7524,-0.413929 0.8138,-0.464926 1.6343,-0.917965 2.4505,-1.378727 0.3278,-0.898076 0.5165,-1.397318 1.049,-2.87786 1.2901,-3.587942 4.7203,-13.030535 7.6207,-20.983732 l 5.2741,-14.4601 -6.5029,-6.366019 c -3.5765,-3.501362 -6.5644,-6.419266 -6.6394,-6.483326 -0.016,-0.01379 -0.032,-0.02128 -0.051,-0.01447 z" />
    <path
       id="path19"
       style="fill:#000000;stroke:none;stroke-width:0;stroke-linecap:square;stroke-dasharray:none"
       d="m -1024.396,17.957502 -7.4641,1.043864 11.899,17.240808 2.6474,-3.111955 c -0.3999,-0.419262 -0.7882,-0.920415 -1.1504,-1.526522 -0.3266,-0.546773 -0.1597,-0.269048 -0.5028,-0.833541 -0.6092,-1.001296 -1.1728,-2.026934 -1.5926,-3.124357 -0.4037,-1.073945 -0.7067,-2.174961 -0.94,-3.298507 -0.2489,-1.029904 -0.4914,-2.063007 -0.831,-3.065962 -0.4502,-0.676879 -0.8928,-1.358904 -1.3229,-2.048971 -0.2568,-0.419898 -0.5009,-0.846785 -0.7426,-1.274857 z" />
    <path
       style="fill:#000000;stroke:none;stroke-width:0;stroke-linecap:square;stroke-dasharray:none"
       d="m -1074.6822,19.075843 c 7.4513,10.796597 7.4513,10.796597 7.4513,10.796597 l 11.4314,-13.437301 z"
       id="path22" />
    <path
       id="path23"
       style="fill:#000000;stroke:none;stroke-width:0;stroke-linecap:square;stroke-dasharray:none"
       d="m -1080.5114,60.042271 -10.7968,7.451225 5.8048,4.938717 c 1.8396,-0.0089 3.6791,-0.02482 5.5186,-0.05478 0.3982,-0.0095 0.7958,-0.02384 1.1937,-0.03514 z" />
    <path
       id="path24"
       style="fill:#000000;stroke:none;stroke-width:0;stroke-linecap:square;stroke-dasharray:none"
       d="m -1026.3519,53.771853 -22.3496,13.984676 9.0961,7.015593 c 0.562,-0.380246 1.1334,-0.734808 1.6779,-1.064535 0.2292,-0.138775 0.4731,-0.290508 0.6889,-0.42168 0.4328,-0.248407 0.8705,-0.487503 1.3105,-0.721403 1.8932,-1.081552 3.7916,-2.153841 5.7004,-3.207556 1.9243,-1.053804 3.853,-2.097306 5.8007,-3.106787 z" />
  </g>
</svg>
